<svg version="1.1" viewBox="0 0 497 497" xmlns="http://www.w3.org/2000/svg" xmlns:xlink="http://www.w3.org/1999/xlink" class="absolute w-8 h-8 -mt-1 z-20 | xl:w-12 xl:h-12"><title>activix-icon</title> <g id="activix-icon" fill="none" fill-rule="evenodd" stroke="none" stroke-width="1"><g id="A" fill-rule="nonzero" transform="translate(18.000000, 1.000000)"><path id="Path" d="M296,44 C282,7 259,0 230,0 C201,0 179,7 166,44 C157.347397,68.626638 102.179465,218.844667 0.496202679,494.654086 C0.305159191,495.172277 0.570365298,495.747224 1.08855617,495.938267 C1.19931316,495.9791 1.31642508,496 1.43446934,496 L81.4888653,496 C87.7987854,496 93.4340671,492.05112 95.587932,486.120187 L229.080851,118.53099 C229.269371,118.011876 229.843021,117.743878 230.362135,117.932398 C230.63569,118.031742 230.852394,118.245331 230.955687,118.51742 L311.637659,331.045542 C311.833674,331.561872 312.411143,331.82154 312.927473,331.625525 C312.933925,331.623076 312.940352,331.62056 312.946752,331.617977 L364.564147,310.789906 C365.076308,310.583244 365.65903,310.830901 365.865691,311.343062 C366.014389,311.711574 365.930779,312.133163 365.6527,312.417036 L322.30135,356.671538 C321.504154,357.485343 321.236682,358.680459 321.610936,359.75644 L365.496629,485.927809 C367.594179,491.958263 373.279249,496 379.664081,496 L458.575209,496 C459.127507,496.000025 459.575234,495.552299 459.575234,495 C459.575234,494.884094 459.555084,494.76907 459.515685,494.660066 C359.823483,218.846838 305.318255,68.626816 296,44 Z" fill="#4E4E4E"></path> <path id="Path" d="M336.778511,323.171041 L162.053498,495.159868 C161.659904,495.547298 161.026759,495.542301 160.639328,495.148707 C160.597359,495.10607 160.559301,495.059753 160.525611,495.010313 L100.329522,406.670597 C100.018525,406.214199 100.136396,405.592102 100.592794,405.281105 C100.663428,405.232974 100.73994,405.194098 100.820461,405.165426 L335.741564,321.516315 C336.26185,321.331055 336.833807,321.602647 337.019067,322.122933 C337.14954,322.489354 337.055707,322.898185 336.778511,323.171041 Z" fill="#7DC243"></path></g></g></svg>
